<?xml version="1.0" standalone="no"?>
<!DOCTYPE svg PUBLIC "-//W3C//DTD SVG 20010904//EN"
 "http://www.w3.org/TR/2001/REC-SVG-20010904/DTD/svg10.dtd">
<svg version="1.0" xmlns="http://www.w3.org/2000/svg"
 width="200.000000pt" height="200.000000pt" viewBox="0 0 200.000000 200.000000"
 preserveAspectRatio="xMidYMid meet">
<metadata>
Created by potrace 1.15, written by Peter Selinger 2001-2017
</metadata>
<g transform="translate(0.000000,200.000000) scale(0.100000,-0.100000)"
fill="#000000" stroke="none">
<path d="M100 1559 l0 -140 38 3 37 3 3 97 3 97 97 3 97 3 3 38 3 37 -140 0
-141 0 0 -141z"/>
<path d="M1622 1663 l3 -38 97 -3 97 -3 3 -97 3 -97 38 -3 37 -3 0 140 0 141
-141 0 -140 0 3 -37z"/>
<path d="M340 1280 l0 -170 35 0 35 0 0 170 0 170 -35 0 -35 0 0 -170z"/>
<path d="M490 1280 l0 -170 80 0 80 0 0 170 0 170 -80 0 -80 0 0 -170z"/>
<path d="M720 1280 l0 -170 40 0 40 0 0 170 0 170 -40 0 -40 0 0 -170z"/>
<path d="M880 1280 l0 -170 40 0 40 0 0 170 0 170 -40 0 -40 0 0 -170z"/>
<path d="M1030 1280 l0 -170 80 0 80 0 0 170 0 170 -80 0 -80 0 0 -170z"/>
<path d="M1270 1280 l0 -170 35 0 35 0 0 170 0 170 -35 0 -35 0 0 -170z"/>
<path d="M1420 1280 l0 -170 40 0 40 0 0 170 0 170 -40 0 -40 0 0 -170z"/>
<path d="M1580 1280 l0 -170 40 0 40 0 0 170 0 170 -40 0 -40 0 0 -170z"/>
<path d="M250 995 l0 -45 745 0 745 0 0 45 0 45 -745 0 -745 0 0 -45z"/>
<path d="M340 710 l0 -170 35 0 35 0 0 170 0 170 -35 0 -35 0 0 -170z"/>
<path d="M490 710 l0 -170 80 0 80 0 0 170 0 170 -80 0 -80 0 0 -170z"/>
<path d="M720 710 l0 -170 40 0 40 0 0 170 0 170 -40 0 -40 0 0 -170z"/>
<path d="M880 710 l0 -170 40 0 40 0 0 170 0 170 -40 0 -40 0 0 -170z"/>
<path d="M1030 710 l0 -170 80 0 80 0 0 170 0 170 -80 0 -80 0 0 -170z"/>
<path d="M1270 710 l0 -170 35 0 35 0 0 170 0 170 -35 0 -35 0 0 -170z"/>
<path d="M1420 710 l0 -170 40 0 40 0 0 170 0 170 -40 0 -40 0 0 -170z"/>
<path d="M1580 710 l0 -170 40 0 40 0 0 170 0 170 -40 0 -40 0 0 -170z"/>
<path d="M100 441 l0 -141 141 0 140 0 -3 38 -3 37 -97 3 -97 3 -3 97 -3 97
-37 3 -38 3 0 -140z"/>
<path d="M1827 573 c-4 -3 -7 -48 -7 -99 l0 -93 -97 -3 -98 -3 -3 -37 -3 -38
140 0 141 0 0 140 0 140 -33 0 c-19 0 -37 -3 -40 -7z"/>
</g>
</svg>
